# Blender v2.81 (sub 16) OBJ File: 'GuardaSol.blend'
# www.blender.org
mtllib GuardaSol.mtl
o Sphere
v 0.000000 0.923880 -0.382683
v 0.000000 0.831470 -0.555570
v 0.000000 0.707107 -0.707107
v 0.114671 0.980785 -0.157831
v 0.224936 0.923880 -0.309597
v 0.326556 0.831470 -0.449466
v 0.415627 0.707107 -0.572061
v 0.185542 0.980785 -0.060286
v 0.363954 0.923880 -0.118255
v 0.528379 0.831470 -0.171680
v 0.672499 0.707107 -0.218508
v 0.185542 0.980785 0.060287
v 0.363954 0.923880 0.118256
v 0.528379 0.831470 0.171681
v 0.672499 0.707107 0.218508
v 0.114671 0.980785 0.157832
v 0.224936 0.923880 0.309598
v 0.326556 0.831470 0.449466
v 0.415627 0.707107 0.572062
v 0.000000 0.980785 0.195091
v 0.000000 0.923880 0.382684
v 0.000000 0.831470 0.555571
v 0.000000 0.707107 0.707107
v -0.000000 1.000000 0.000001
v -0.114671 0.980785 0.157832
v -0.224936 0.923880 0.309598
v -0.326556 0.831470 0.449466
v -0.415627 0.707107 0.572062
v -0.185542 0.980785 0.060287
v -0.363954 0.923880 0.118256
v -0.528379 0.831470 0.171681
v -0.672499 0.707107 0.218508
v -0.185542 0.980785 -0.060286
v -0.363954 0.923880 -0.118255
v -0.528379 0.831470 -0.171680
v -0.672499 0.707107 -0.218508
v -0.114671 0.980785 -0.157831
v -0.224936 0.923880 -0.309597
v -0.326556 0.831470 -0.449466
v -0.415627 0.707107 -0.572061
v -0.000000 0.980785 -0.195090
v 0.000000 0.031357 -0.019488
v 0.000000 0.996399 -0.019488
v 0.016877 0.031357 -0.009744
v 0.016877 0.996399 -0.009744
v 0.016877 0.031357 0.009744
v 0.016877 0.996399 0.009744
v -0.000000 0.031357 0.019488
v -0.000000 0.996399 0.019488
v -0.016877 0.031357 0.009744
v -0.016877 0.996399 0.009744
v -0.016877 0.031357 -0.009744
v -0.016877 0.996399 -0.009744
vt 1.000000 0.225615
vt 1.000000 0.725615
vt 0.833333 0.725615
vt 0.833333 0.225615
vt 0.666667 0.725615
vt 0.666667 0.225615
vt 0.500000 0.725615
vt 0.500000 0.225615
vt 0.333333 0.725615
vt 0.333333 0.225615
vt 0.481938 0.166550
vt 0.392880 0.217968
vt 0.303823 0.166550
vt 0.303823 0.063716
vt 0.392880 0.012298
vt 0.481938 0.063716
vt 0.166667 0.725615
vt 0.166667 0.225615
vt -0.000000 0.725615
vt -0.000000 0.225615
vt 0.607120 0.217968
vt 0.696177 0.166550
vt 0.696177 0.063716
vt 0.607120 0.012298
vt 0.518062 0.063716
vt 0.518062 0.166550
vt 0.700000 0.937500
vt 0.650000 1.000000
vt 0.600000 0.937500
vt 0.700000 0.875000
vt 0.600000 0.875000
vt 0.700000 0.812500
vt 0.600000 0.812500
vt 0.700000 0.750000
vt 0.600000 0.750000
vt 0.550000 1.000000
vt 0.500000 0.937500
vt 0.500000 0.875000
vt 0.500000 0.812500
vt 0.500000 0.750000
vt 0.400000 0.937500
vt 0.400000 0.875000
vt 0.400000 0.812500
vt 0.400000 0.750000
vt 0.449999 1.000000
vt 0.349999 1.000000
vt 0.300000 0.937500
vt 0.300000 0.875000
vt 0.300000 0.812500
vt 0.300000 0.750000
vt 0.200000 0.937500
vt 0.200000 0.875000
vt 0.200000 0.812500
vt 0.200000 0.750000
vt 0.250000 1.000000
vt 0.150000 1.000000
vt 0.100000 0.937500
vt 0.100000 0.875000
vt 0.100000 0.812500
vt 0.100000 0.750000
vt 0.000000 0.875000
vt 0.000000 0.812500
vt 0.000000 0.750000
vt 0.050000 1.000000
vt 0.000000 0.937500
vt 1.000000 0.937500
vt 0.950001 1.000000
vt 0.900000 0.937500
vt 1.000000 0.875000
vt 0.900000 0.875000
vt 1.000000 0.812500
vt 0.900000 0.812500
vt 1.000000 0.750000
vt 0.900000 0.750000
vt 0.800000 0.812500
vt 0.800000 0.750000
vt 0.850000 1.000000
vt 0.800000 0.937500
vt 0.800000 0.875000
vt 0.750000 1.000000
vn 0.5000 0.0000 -0.8660
vn 1.0000 0.0000 0.0000
vn 0.5000 0.0000 0.8660
vn -0.5000 0.0000 0.8660
vn 0.0000 1.0000 0.0000
vn -1.0000 0.0000 0.0000
vn -0.5000 0.0000 -0.8660
vn 0.0000 -1.0000 0.0000
vn 0.0000 0.9769 -0.2138
vn 0.1256 0.9769 -0.1729
vn 0.0000 0.9169 -0.3991
vn 0.2346 0.9169 -0.3229
vn 0.0000 0.8225 -0.5687
vn 0.3343 0.8225 -0.4601
vn 0.0000 0.7730 -0.6344
vn 0.3729 0.7730 -0.5132
vn 0.2033 0.9769 -0.0660
vn 0.3796 0.9169 -0.1233
vn 0.5409 0.8225 -0.1758
vn 0.6033 0.7730 -0.1960
vn 0.2033 0.9769 0.0660
vn 0.3796 0.9169 0.1233
vn 0.5409 0.8225 0.1758
vn 0.6033 0.7730 0.1960
vn 0.1256 0.9769 0.1729
vn 0.2346 0.9169 0.3229
vn 0.3343 0.8225 0.4601
vn 0.3729 0.7730 0.5132
vn 0.0000 0.9769 0.2138
vn 0.0000 0.9169 0.3991
vn 0.0000 0.8225 0.5687
vn 0.0000 0.7730 0.6344
vn -0.1256 0.9769 0.1729
vn -0.2346 0.9169 0.3229
vn -0.3343 0.8225 0.4601
vn -0.3729 0.7730 0.5132
vn -0.3796 0.9169 0.1233
vn -0.5409 0.8225 0.1758
vn -0.6033 0.7730 0.1960
vn -0.2033 0.9769 0.0660
vn -0.2033 0.9769 -0.0660
vn -0.3796 0.9169 -0.1233
vn -0.5409 0.8225 -0.1758
vn -0.6033 0.7730 -0.1960
vn -0.3343 0.8225 -0.4601
vn -0.3729 0.7730 -0.5132
vn -0.1256 0.9769 -0.1729
vn -0.2346 0.9169 -0.3229
usemtl Material
s off
f 42/1/1 43/2/1 45/3/1 44/4/1
f 44/4/2 45/3/2 47/5/2 46/6/2
f 46/6/3 47/5/3 49/7/3 48/8/3
f 48/8/4 49/7/4 51/9/4 50/10/4
f 45/11/5 43/12/5 53/13/5 51/14/5 49/15/5 47/16/5
f 50/10/6 51/9/6 53/17/6 52/18/6
f 52/18/7 53/17/7 43/19/7 42/20/7
f 42/21/8 44/22/8 46/23/8 48/24/8 50/25/8 52/26/8
s 1
f 41/27/9 24/28/5 4/29/10
f 1/30/11 41/27/9 4/29/10 5/31/12
f 2/32/13 1/30/11 5/31/12 6/33/14
f 3/34/15 2/32/13 6/33/14 7/35/16
f 4/29/10 24/36/5 8/37/17
f 5/31/12 4/29/10 8/37/17 9/38/18
f 6/33/14 5/31/12 9/38/18 10/39/19
f 7/35/16 6/33/14 10/39/19 11/40/20
f 9/38/18 8/37/17 12/41/21 13/42/22
f 10/39/19 9/38/18 13/42/22 14/43/23
f 11/40/20 10/39/19 14/43/23 15/44/24
f 8/37/17 24/45/5 12/41/21
f 12/41/21 24/46/5 16/47/25
f 13/42/22 12/41/21 16/47/25 17/48/26
f 14/43/23 13/42/22 17/48/26 18/49/27
f 15/44/24 14/43/23 18/49/27 19/50/28
f 17/48/26 16/47/25 20/51/29 21/52/30
f 18/49/27 17/48/26 21/52/30 22/53/31
f 19/50/28 18/49/27 22/53/31 23/54/32
f 16/47/25 24/55/5 20/51/29
f 20/51/29 24/56/5 25/57/33
f 21/52/30 20/51/29 25/57/33 26/58/34
f 22/53/31 21/52/30 26/58/34 27/59/35
f 23/54/32 22/53/31 27/59/35 28/60/36
f 27/59/35 26/58/34 30/61/37 31/62/38
f 28/60/36 27/59/35 31/62/38 32/63/39
f 25/57/33 24/64/5 29/65/40
f 26/58/34 25/57/33 29/65/40 30/61/37
f 29/66/40 24/67/5 33/68/41
f 30/69/37 29/66/40 33/68/41 34/70/42
f 31/71/38 30/69/37 34/70/42 35/72/43
f 32/73/39 31/71/38 35/72/43 36/74/44
f 36/74/44 35/72/43 39/75/45 40/76/46
f 33/68/41 24/77/5 37/78/47
f 34/70/42 33/68/41 37/78/47 38/79/48
f 35/72/43 34/70/42 38/79/48 39/75/45
f 37/78/47 24/80/5 41/27/9
f 38/79/48 37/78/47 41/27/9 1/30/11
f 39/75/45 38/79/48 1/30/11 2/32/13
f 40/76/46 39/75/45 2/32/13 3/34/15
